<?xml version="1.0" encoding="utf-8"?>
<!-- Generator: Adobe Illustrator 25.4.1, SVG Export Plug-In . SVG Version: 6.00 Build 0)  -->
<svg version="1.1" id="Capa_1" xmlns="http://www.w3.org/2000/svg" xmlns:xlink="http://www.w3.org/1999/xlink" x="0px" y="0px"
	 viewBox="0 0 124 124" style="enable-background:new 0 0 124 124;" xml:space="preserve">
<style type="text/css">
	.st0{fill:#121212;}
	.st1{fill:#84CC16;}
</style>
<path class="st0" d="M117.3,124H6.7C3,124,0,121,0,117.3V6.7C0,3,3,0,6.7,0h110.7c3.7,0,6.7,3,6.7,6.7v110.7
	C124,121,121,124,117.3,124z"/>
<g>
	<path class="st1" d="M21.4,86.8c-1.9-1.2-3.5-2.7-4.6-4.6c-1.2-1.9-1.8-4.1-1.8-6.4V47.6c0-2.4,0.6-4.5,1.8-6.4
		c1.2-1.9,2.7-3.5,4.6-4.6c1.9-1.2,4.1-1.8,6.4-1.8h41.8v12.2H28.3c-0.3,0-0.6,0.1-0.8,0.3c-0.2,0.2-0.3,0.5-0.3,0.8v27.3
		c0,0.3,0.1,0.6,0.3,0.8c0.2,0.2,0.5,0.3,0.8,0.3h41.4v12.2H27.8C25.5,88.6,23.3,88,21.4,86.8z"/>
	<path class="st1" d="M60.4,86.8c-1.9-1.2-3.5-2.7-4.6-4.6c-1.2-1.9-1.8-4.1-1.8-6.4V47.6c0-2.4,0.6-4.5,1.8-6.4
		c1.2-1.9,2.7-3.5,4.6-4.6c1.9-1.2,4.1-1.8,6.4-1.8h29.1c2.4,0,4.5,0.6,6.5,1.8c1.9,1.2,3.5,2.7,4.6,4.6c1.1,1.9,1.7,4.1,1.7,6.4
		v20.2H66.2v7.5c0,0.3,0.1,0.6,0.3,0.8c0.2,0.2,0.5,0.3,0.8,0.3h41.4v12.2H66.8C64.5,88.6,62.3,88,60.4,86.8z M66.2,56.9h30.4V48
		c0-0.3-0.1-0.6-0.3-0.8c-0.2-0.2-0.5-0.3-0.8-0.3H67.3c-0.3,0-0.6,0.1-0.8,0.3c-0.2,0.2-0.3,0.5-0.3,0.8V56.9z"/>
</g>
</svg>
