<svg xmlns="http://www.w3.org/2000/svg" xml:space="preserve" baseProfile="tiny" overflow="visible" version="1.2" viewBox="0 0 16 16"><path fill="#1E1F21" d="M14.3 15.7H1.7c-.8 0-1.4-.6-1.4-1.4V1.7C.3 1 1 .3 1.7.3h12.5c.8 0 1.4.6 1.4 1.4v12.5c.1.8-.6 1.5-1.3 1.5z"/><g fill="#6EE7B7"><path d="M2.9 4.9h.7v.7h-.7v-.7zm0 .7h.7v.7h-.7v-.7zm0 .7h.7V7h-.7v-.7zm0 .7h.7v.7h-.7V7zm0 .8h.7v.7h-.7v-.7zm0 .7h.7v.7h-.7v-.7zm0 .7h.7v.7h-.7v-.7zm0 .7h.7v.7h-.7v-.7zm.7-5.8h.7v.7h-.7v-.7zm0 .8h.7v.7h-.7v-.7zm0 .7h.7v.7h-.7v-.7zm0 .7h.7V7h-.7v-.7zm0 .7h.7v.7h-.7V7zm0 .8h.7v.7h-.7v-.7zm0 .7h.7v.7h-.7v-.7zm0 .7h.7v.7h-.7v-.7zm0 .7h.7v.7h-.7v-.7zm0 .7h.7v.7h-.7v-.7zm.8-6.5h.7v.7h-.7v-.7zm0 .8h.7v.7h-.7v-.7zm0 .7h.7v.7h-.7v-.7zm0 3.6h.7v.7h-.7v-.7zm0 .7h.7v.7h-.7v-.7zm0 .7h.7v.7h-.7v-.7zm.7-6.5h.7v.7h-.7v-.7zm0 .8h.7v.7h-.7v-.7zm0 5h.7v.7h-.7v-.7zm0 .7h.7v.7h-.7v-.7zm.7-6.5h.7v.7h-.7v-.7zm0 .8h.7v.7h-.7v-.7zm0 5h.7v.7h-.7v-.7zm0 .7h.7v.7h-.7v-.7zm.7-6.5h.7v.7h-.7v-.7zm0 .8h.7v.7h-.7v-.7zm0 .7h.7v.7h-.7v-.7zm0 3.6h.7v.7h-.7v-.7zm0 .7h.7v.7h-.7v-.7zm0 .7h.7v.7h-.7v-.7zm.8-5.7H8v.7h-.7v-.7zm0 .7H8v.7h-.7v-.7zm0 3.6H8v.7h-.7v-.7zm0 .7H8v.7h-.7v-.7zM8.7 4.1h.7v.7h-.7v-.7zm0 .8h.7v.7h-.7v-.7zm0 .7h.7v.7h-.7v-.7zm0 .7h.7V7h-.7v-.7zm0 .7h.7v.7h-.7V7zm0 .8h.7v.7h-.7v-.7zm0 .7h.7v.7h-.7v-.7zm0 .7h.7v.7h-.7v-.7zm0 .7h.7v.7h-.7v-.7zm0 .7h.7v.7h-.7v-.7zm.7-6.5h.7v.7h-.7v-.7zm0 .8h.7v.7h-.7v-.7zm0 .7h.7v.7h-.7v-.7zm0 .7h.7V7h-.7v-.7zm0 .7h.7v.7h-.7V7zm0 .8h.7v.7h-.7v-.7zm0 .7h.7v.7h-.7v-.7zm0 .7h.7v.7h-.7v-.7zm0 .7h.7v.7h-.7v-.7zm0 .7h.7v.7h-.7v-.7zm.7-6.5h.7v.7h-.7v-.7zm0 .8h.7v.7h-.7v-.7zm0 2.1h.7v.7h-.7V7zm0 .8h.7v.7h-.7v-.7zm0 2.1h.7v.7h-.7v-.7zm0 .7h.7v.7h-.7v-.7zm.8-6.5h.7v.7h-.7v-.7zm0 .8h.7v.7h-.7v-.7zm0 2.1h.7v.7h-.7V7zm0 .8h.7v.7h-.7v-.7zm0 2.1h.7v.7h-.7v-.7zm0 .7h.7v.7h-.7v-.7zm.7-6.5h.7v.7h-.7v-.7zm0 .8h.7v.7h-.7v-.7zm0 2.1h.7v.7h-.7V7zm0 .8h.7v.7h-.7v-.7zm0 2.1h.7v.7h-.7v-.7zm0 .7h.7v.7h-.7v-.7zm.7-6.5h.7v.7h-.7v-.7zm0 .8h.7v.7h-.7v-.7zm0 5h.7v.7h-.7v-.7zm0 .7h.7v.7h-.7v-.7z"/></g></svg>