<svg width="27" height="32" viewBox="0 0 27 32" fill="none" xmlns="http://www.w3.org/2000/svg">
<path d="M12.98 0.790001C14.12 2.64 12.61 5.08 11.41 6.45C10.21 7.82 8.82002 8.89 7.53002 10.09C6.1484 11.3454 4.87705 12.7171 3.73 14.19V14.26C1.84292 16.4991 0.805475 19.3317 0.800007 22.26C0.799281 23.1678 0.896519 24.0731 1.09002 24.96V24.88C1.66082 26.6552 2.70105 28.243 4.10057 29.4753C5.5001 30.7076 7.20681 31.5385 9.04 31.88H9.09999C8.10857 31.4576 7.24922 30.7759 6.61223 29.9067C5.97524 29.0374 5.58414 28.0126 5.48 26.94C5.54723 25.8513 5.86797 24.7933 6.41661 23.8506C6.96526 22.9078 7.72663 22.1063 8.64 21.51C8.50736 21.8264 8.44263 22.167 8.45 22.51C8.44598 22.9898 8.58525 23.4599 8.84999 23.86C9.06203 24.1287 9.33492 24.3432 9.64614 24.4858C9.95736 24.6284 10.298 24.6949 10.64 24.68C11.2102 24.68 11.7571 24.4535 12.1603 24.0503C12.5635 23.6471 12.79 23.1002 12.79 22.53C12.792 22.2067 12.7201 21.8873 12.5797 21.5961C12.4393 21.305 12.2342 21.0497 11.98 20.85C11.4075 20.3978 10.9446 19.822 10.626 19.1657C10.3074 18.5094 10.1412 17.7896 10.14 17.06C10.14 16.85 10.14 16.64 10.14 16.44C10.393 15.538 10.9165 14.7352 11.64 14.14C11.11 15.54 12.64 16.92 13.64 17.61C15.4915 18.6968 17.2748 19.8957 18.98 21.2L18.86 21.1C19.6864 21.7371 20.3559 22.5551 20.817 23.4911C21.2781 24.4272 21.5186 25.4565 21.52 26.5C21.52 26.63 21.52 26.76 21.52 26.88C21.3117 28.0527 20.7886 29.1467 20.0065 30.0451C19.2244 30.9434 18.2129 31.6122 17.08 31.98H17.03C21.74 30.98 26.6 27.29 26.7 22.07C26.82 18.13 24.23 14.64 20 12.48C20.0864 12.6468 20.131 12.8321 20.13 13.02C20.1276 13.2561 20.0544 13.486 19.92 13.68C19.7133 14.0046 19.4281 14.2719 19.0908 14.4572C18.7535 14.6425 18.3749 14.7397 17.99 14.74C17.6561 14.7398 17.3262 14.6663 17.0238 14.5246C16.7214 14.3829 16.4539 14.1765 16.24 13.92C14.67 11.92 16.24 9.74 16.49 7.61C16.49 7.54 16.49 7.46 16.49 7.37C16.4902 6.08011 16.1762 4.80958 15.5751 3.66831C14.974 2.52705 14.1038 1.54943 13.04 0.820002L12.98 0.790001Z" fill="#EB513B"/>
</svg>
