<svg id="Capa_1" data-name="Capa 1" xmlns="http://www.w3.org/2000/svg" viewBox="0 0 1000 1000"><defs><style>.cls-1{fill:#639;}</style></defs><path class="cls-1" d="M840,0H0V840a160,160,0,0,0,160,160H840a160,160,0,0,0,160-160V160A160,160,0,0,0,840,0ZM463.36,665.76h-73.9V652.84c0-13.72-3-23.84-8.83-30.45A26.48,26.48,0,0,0,359,612.07c-12,0-20.55,4.1-25.37,12.42a79.1,79.1,0,0,0-6.72,36.66V807.41c0,30.55,10.74,46.08,32.1,46.38,10,0,17.54-3.61,22.76-10.82a51.71,51.71,0,0,0,7.72-30.46V801.6h73.9V813q0,35.61-13.94,59.4a88.84,88.84,0,0,1-38.2,35.66,121.47,121.47,0,0,1-54.85,11.82q-47.55,0-75.51-25.85C262.21,876.93,253,851.18,253,817.12V648.83c0-33.85,9.83-59.5,29.48-77.13,20-17.43,46.13-26.24,78.52-26.24,31.39,0,56.15,9,74.5,26.84,18.56,17.93,27.88,44.58,27.88,80.14ZM667.13,892.05q-27.37,27.8-76,27.85c-32.4,0-57.16-9.42-74.51-28.35-17.15-19-26.07-46.18-26.87-81.64h69.79q.6,47,33.1,47.08c11,0,18.84-3.5,23.25-10.42s6.72-17.93,6.72-33.05c0-12-2.9-22-8.72-29.95a73.22,73.22,0,0,0-29.48-21.14L558.53,750c-23.07-11-39.81-24-50.14-39.27-10-15.13-15-36.36-15-63.5q0-45.54,26.37-73.94c18-18.93,42.62-28.34,74-28.34,30.29,0,53.75,9.31,70.2,27.84,17.05,18.64,25.77,45.28,26.47,80.14H623.21a72.22,72.22,0,0,0-6.72-33.06q-5.72-11.4-22.26-11.41-29.49,0-29.49,35c0,11.83,2.41,21,7.22,28A65.06,65.06,0,0,0,597.33,689l24.77,10.92c25.57,11.72,44,26.05,55.36,43.38s17,40.27,17,69.12Q694.5,864.26,667.13,892.05Zm225.42,0q-27.37,27.8-76,27.85h0c-32.39,0-57.16-9.42-74.5-28.35-17.15-19-26.08-46.18-26.88-81.64H785q.6,47,33.08,47.08c11,0,18.86-3.5,23.37-10.42s6.72-17.93,6.72-33.05c0-12-3-22-8.83-29.95a73.22,73.22,0,0,0-29.48-21.14L784,750c-23.06-11-39.81-24-50.14-39.27-10-15.13-15-36.36-15-63.5q0-45.54,26.37-73.94c18.05-18.93,42.62-28.34,74-28.34q45.45,0,70.3,27.84c16.85,18.64,25.67,45.28,26.38,80.14H848.63a72.22,72.22,0,0,0-6.72-33.06q-5.7-11.4-22.26-11.41-29.48,0-29.48,35c0,11.83,2.4,21,7.22,28A65.06,65.06,0,0,0,822.76,689l24.77,10.92c25.57,11.72,44,26.05,55.35,43.38s17,40.27,17,69.12C919.93,847,910.9,873.52,892.55,892.05Z"/></svg>