<svg width="15" height="23" viewBox="0 0 15 23" fill="none" xmlns="http://www.w3.org/2000/svg">
<path d="M7.38997 11.65C7.38336 11.1601 7.47331 10.6738 7.65468 10.2187C7.83605 9.76367 8.10525 9.34878 8.44698 8.99776C8.78871 8.64675 9.19627 8.36647 9.64632 8.17297C10.0964 7.97946 10.5801 7.87651 11.07 7.86999C11.5607 7.87521 12.0455 7.97721 12.4967 8.17013C12.9479 8.36305 13.3566 8.64311 13.6994 8.99426C14.0422 9.3454 14.3123 9.76073 14.4943 10.2165C14.6763 10.6722 14.7666 11.1593 14.76 11.65C14.7666 12.1407 14.6763 12.6278 14.4943 13.0835C14.3123 13.5393 14.0422 13.9546 13.6994 14.3057C13.3566 14.6569 12.9479 14.937 12.4967 15.1299C12.0455 15.3228 11.5607 15.4248 11.07 15.43C10.5801 15.4235 10.0964 15.3205 9.64632 15.127C9.19627 14.9335 8.78871 14.6533 8.44698 14.3022C8.10525 13.9512 7.83605 13.5363 7.65468 13.0813C7.47331 12.6262 7.38336 12.1398 7.38997 11.65Z" fill="#1ABAFC"/>
<path d="M-4.18779e-05 19.21C-0.00665215 18.7202 0.0832997 18.2338 0.264668 17.7787C0.446036 17.3237 0.715298 16.9088 1.05703 16.5578C1.39875 16.2067 1.80625 15.9265 2.25631 15.733C2.70636 15.5395 3.19011 15.4365 3.67995 15.43H7.38997V19.21C7.40065 20.2002 7.01818 21.1542 6.32644 21.8628C5.63469 22.5715 4.69015 22.9768 3.69997 22.99C3.20882 22.9848 2.72351 22.8829 2.27175 22.6901C1.81999 22.4973 1.41062 22.2174 1.06704 21.8664C0.723453 21.5153 0.452396 21.1001 0.269306 20.6443C0.0862168 20.1885 -0.00532293 19.7012 -4.18779e-05 19.21Z" fill="#0ACD81"/>
<path d="M7.39 0.30999V7.86999H11.07C11.5607 7.86477 12.0455 7.7628 12.4967 7.56988C12.948 7.37696 13.3567 7.0969 13.6994 6.74575C14.0422 6.39461 14.3123 5.97927 14.4943 5.52355C14.6763 5.06783 14.7666 4.58066 14.76 4.08999C14.7666 3.59931 14.6763 3.11218 14.4943 2.65646C14.3123 2.20073 14.0422 1.7854 13.6994 1.43426C13.3567 1.08311 12.948 0.803049 12.4967 0.61013C12.0455 0.417211 11.5607 0.315208 11.07 0.30999H7.39Z" fill="#FF7262"/>
<path d="M-4.18779e-05 4.08999C-0.00665215 4.57983 0.0832997 5.06619 0.264668 5.52126C0.446036 5.97634 0.715298 6.39123 1.05703 6.74224C1.39875 7.09326 1.80625 7.37354 2.25631 7.56704C2.70636 7.76054 3.19011 7.86347 3.67995 7.86999H7.38997V0.30999H3.69997C3.20843 0.313899 2.72252 0.414927 2.27016 0.607262C1.8178 0.799596 1.40789 1.07944 1.06405 1.43072C0.720203 1.78199 0.449236 2.1978 0.266621 2.65417C0.084005 3.11054 -0.00664659 3.59848 -4.18779e-05 4.08999Z" fill="#F04E1E"/>
<path d="M-4.18779e-05 11.65C-0.00665215 12.1398 0.0832997 12.6262 0.264668 13.0813C0.446036 13.5363 0.715298 13.9512 1.05703 14.3022C1.39875 14.6533 1.80625 14.9335 2.25631 15.127C2.70636 15.3205 3.19011 15.4235 3.67995 15.43H7.38997V7.86999H3.69997C3.20843 7.8739 2.72252 7.97492 2.27016 8.16726C1.8178 8.35959 1.40789 8.63947 1.06405 8.99075C0.720203 9.34202 0.449236 9.75779 0.266621 10.2142C0.084005 10.6705 -0.00664659 11.1585 -4.18779e-05 11.65Z" fill="#A059FF"/>
</svg>
