<svg width="32" height="32" viewBox="0 0 32 32" fill="none" xmlns="http://www.w3.org/2000/svg">
<path d="M11.37 4.21L14.91 7.75C15.1363 7.67786 15.3724 7.64076 15.61 7.64C16.2386 7.64 16.8414 7.88969 17.2858 8.33415C17.7303 8.77862 17.98 9.38143 17.98 10.01C17.9792 10.2476 17.9422 10.4836 17.87 10.71L21.46 14.3C21.6967 14.2278 21.9426 14.1908 22.19 14.19C22.8168 14.19 23.4181 14.4383 23.8623 14.8806C24.3065 15.3229 24.5574 15.9232 24.56 16.55C24.56 17.1786 24.3103 17.7814 23.8658 18.2258C23.4214 18.6703 22.8186 18.92 22.19 18.92C21.5614 18.92 20.9586 18.6703 20.5141 18.2258C20.0697 17.7814 19.82 17.1786 19.82 16.55C19.8164 16.2054 19.8881 15.8641 20.03 15.55L16.69 12.28V20.88C17.0784 21.0788 17.4044 21.3811 17.632 21.7534C17.8597 22.1257 17.9801 22.5536 17.98 22.99C17.98 23.6134 17.7345 24.2117 17.2965 24.6553C16.8585 25.0989 16.2633 25.3521 15.64 25.36C15.3292 25.36 15.0215 25.2986 14.7345 25.1794C14.4476 25.0602 14.1869 24.8854 13.9677 24.6652C13.7484 24.445 13.5748 24.1837 13.4568 23.8962C13.3388 23.6087 13.2787 23.3008 13.28 22.99C13.2784 22.5094 13.4243 22.0398 13.6978 21.6447C13.9714 21.2495 14.3596 20.9477 14.81 20.78V12.22C14.3596 12.0523 13.9714 11.7505 13.6978 11.3553C13.4243 10.9602 13.2784 10.4906 13.28 10.01C13.2744 9.66407 13.3497 9.32163 13.5 9.01L10.05 5.56L0.789993 14.81C0.372917 15.2281 0.138687 15.7945 0.138687 16.385C0.138687 16.9755 0.372917 17.5419 0.789993 17.96L14.16 31.33C14.578 31.7471 15.1445 31.9813 15.735 31.9813C16.3255 31.9813 16.892 31.7471 17.31 31.33L30.64 17.96C31.0571 17.5419 31.2913 16.9755 31.2913 16.385C31.2913 15.7945 31.0571 15.2281 30.64 14.81L17.28 1.45C16.862 1.03292 16.2955 0.798691 15.705 0.798691C15.1145 0.798691 14.548 1.03292 14.13 1.45" fill="#EB513B"/>
</svg>
