<svg width="32" height="32" viewBox="0 0 32 32" fill="none" xmlns="http://www.w3.org/2000/svg">
<path fill-rule="evenodd" clip-rule="evenodd" d="M16.37 0.199997C18.4449 0.226096 20.4944 0.660669 22.4014 1.4789C24.3084 2.29713 26.0355 3.48299 27.4841 4.96877C28.9327 6.45454 30.0745 8.21111 30.8442 10.1382C31.6139 12.0653 31.9964 14.1251 31.97 16.2C31.986 19.5207 30.9685 22.7641 29.0584 25.4805C27.1483 28.1969 24.4404 30.2517 21.31 31.36C20.52 31.52 20.24 31.02 20.24 30.6C20.24 30.18 20.24 28.35 20.24 26.21C20.2854 25.6634 20.2144 25.1135 20.0317 24.5963C19.849 24.0792 19.5587 23.6067 19.18 23.21C22.65 22.82 26.3 21.46 26.3 15.32C26.3265 13.7394 25.7551 12.2072 24.7 11.03C25.1727 9.64889 25.1157 8.14145 24.54 6.8C24.54 6.8 23.24 6.37 20.26 8.44C18.9861 8.08855 17.6714 7.90698 16.35 7.9C15.0319 7.90786 13.7206 8.08943 12.45 8.44C9.45 6.37 8.15999 6.8 8.15999 6.8C7.59042 8.14333 7.53701 9.64969 8.01 11.03C6.95836 12.2092 6.3874 13.7401 6.40999 15.32C6.40999 21.45 10.05 22.82 13.51 23.22C12.9338 23.7924 12.5794 24.5508 12.51 25.36C12.127 25.5811 11.7032 25.7223 11.2641 25.775C10.825 25.8276 10.3798 25.7907 9.95543 25.6663C9.53104 25.542 9.13629 25.3329 8.79503 25.0516C8.45377 24.7704 8.17308 24.4228 7.96999 24.03C7.72714 23.6041 7.39167 23.2383 6.98836 22.9597C6.58505 22.681 6.12422 22.4965 5.64 22.42C5.64 22.42 4.12 22.42 5.54 23.42C6.37648 23.9696 6.98982 24.7992 7.27001 25.76C7.27001 25.76 8.18001 28.61 12.52 27.64C12.52 28.98 12.52 30.24 12.52 30.64C12.52 31.04 12.23 31.55 11.46 31.41C8.32617 30.3028 5.6149 28.2472 3.70278 25.5287C1.79065 22.8102 0.772589 19.5636 0.789997 16.24C0.736604 12.0512 2.3489 8.01263 5.27239 5.01226C8.19587 2.01189 12.1912 0.295334 16.38 0.239996" fill="black"/>
</svg>
