<svg width="48" height="14" viewBox="0 0 48 14" fill="none" xmlns="http://www.w3.org/2000/svg">
<path d="M4.99001 7.61V6.88C4.99001 6.67 5.07999 6.59 5.28999 6.59C6.03999 6.59 6.48 5.7 6.48 4.69V2.59C6.48775 2.3352 6.54564 2.08442 6.65038 1.85201C6.75511 1.61959 6.90464 1.4101 7.09038 1.23551C7.27612 1.06091 7.49445 0.92463 7.73289 0.83446C7.97134 0.74429 8.2252 0.701999 8.48 0.710002H9.17C9.37 0.710002 9.46001 0.800005 9.46001 1.01V1.82C9.46001 2.03 9.37 2.11 9.17 2.11H8.96001C8.45001 2.11 8.28999 2.68 8.28999 3.53V5.16C8.35283 5.59385 8.27138 6.03633 8.05818 6.41937C7.84498 6.80241 7.51184 7.10479 7.11 7.28C7.51076 7.44295 7.84556 7.73518 8.06117 8.11024C8.27679 8.48531 8.36085 8.92168 8.3 9.35V11.07C8.3 11.91 8.47999 12.48 8.96999 12.48H9.18001C9.38001 12.48 9.46999 12.57 9.46999 12.77V13.59C9.46999 13.79 9.38001 13.88 9.18001 13.88H8.49001C8.23455 13.8907 7.97954 13.8503 7.73991 13.7611C7.50029 13.6719 7.28088 13.5358 7.09459 13.3607C6.90829 13.1855 6.75887 12.975 6.65504 12.7413C6.55122 12.5077 6.49511 12.2556 6.49001 12V9.81C6.49001 8.81 6.08 7.92 5.3 7.92C5.07 7.9 4.99001 7.81 4.99001 7.61Z" fill="#EA760B"/>
<path d="M0.819992 7.61V6.88C0.819992 6.67 0.91001 6.59 1.12001 6.59C1.87001 6.59 2.31001 5.7 2.31001 4.69V2.59C2.31777 2.3352 2.37566 2.08442 2.48039 1.85201C2.58512 1.61959 2.73462 1.4101 2.92036 1.23551C3.10611 1.06091 3.32444 0.92463 3.56288 0.83446C3.80132 0.74429 4.05522 0.701999 4.31001 0.710002H4.99998C5.19998 0.710002 5.28999 0.800005 5.28999 1.01V1.82C5.28999 2.03 5.19998 2.11 4.99998 2.11H4.78999C4.27999 2.11 4.12001 2.68 4.12001 3.53V5.16C4.18285 5.59385 4.1014 6.03633 3.8882 6.41937C3.675 6.80241 3.34183 7.10479 2.93999 7.28C3.34075 7.44295 3.67554 7.73518 3.89116 8.11024C4.10677 8.48531 4.19084 8.92168 4.12999 9.35V11.07C4.12999 11.91 4.31 12.48 4.8 12.48H5.00999C5.20999 12.48 5.3 12.57 5.3 12.77V13.59C5.3 13.79 5.20999 13.88 5.00999 13.88H4.31999C4.06454 13.8907 3.80952 13.8503 3.5699 13.7611C3.33028 13.6719 3.11087 13.5358 2.92458 13.3607C2.73828 13.1855 2.58885 12.975 2.48503 12.7413C2.38121 12.5077 2.32509 12.2556 2.31999 12V9.81C2.31999 8.81 1.90999 7.92 1.12999 7.92C0.89999 7.9 0.819992 7.81 0.819992 7.61Z" fill="#EA760B"/>
<path d="M20.64 5.7V6.28ZM23.21 5.7V4.7H24.77V8.92C24.734 9.64869 24.419 10.3356 23.8903 10.8383C23.3615 11.341 22.6596 11.6209 21.93 11.62C21.2004 11.6209 20.4985 11.341 19.9697 10.8383C19.441 10.3356 19.126 9.64869 19.09 8.92C19.09 8.92 19.09 4.7 19.09 4.7H20.64V5.7M20.64 5.7V8.82C20.6426 9.1657 20.7818 9.49634 21.0272 9.73985C21.2726 9.98336 21.6043 10.12 21.95 10.12C22.2948 10.12 22.6255 9.98304 22.8692 9.73924C23.113 9.49544 23.25 9.16478 23.25 8.82V5.7" fill="#C0C5CA"/>
<path d="M29.24 5.08C28.6506 5.08317 28.0721 5.23815 27.56 5.53V3.08H25.89V8.43C25.89 8.86993 25.9767 9.30555 26.145 9.71199C26.3134 10.1184 26.5601 10.4877 26.8712 10.7988C27.1823 11.1099 27.5516 11.3566 27.958 11.525C28.3645 11.6933 28.8001 11.78 29.24 11.78C29.6841 11.7866 30.1251 11.7049 30.5373 11.5395C30.9496 11.3741 31.3248 11.1284 31.6412 10.8167C31.9576 10.5049 32.2088 10.1334 32.3803 9.72364C32.5518 9.31391 32.64 8.87417 32.64 8.43C32.64 7.98583 32.5518 7.54609 32.3803 7.13635C32.2088 6.72662 31.9576 6.35507 31.6412 6.04333C31.3248 5.7316 30.9496 5.48589 30.5373 5.32051C30.1251 5.15512 29.6841 5.07337 29.24 5.08ZM29.24 10.25C28.7573 10.25 28.2944 10.0583 27.9531 9.71693C27.6118 9.37562 27.42 8.91269 27.42 8.43C27.4226 7.94812 27.6152 7.48671 27.956 7.14597C28.2967 6.80522 28.7581 6.61263 29.24 6.61C29.7227 6.61 30.1856 6.80175 30.5269 7.14306C30.8682 7.48438 31.06 7.94731 31.06 8.43C31.0654 8.67188 31.0222 8.91238 30.933 9.13728C30.8438 9.36218 30.7104 9.56692 30.5407 9.73939C30.3711 9.91186 30.1685 10.0486 29.9451 10.1414C29.7217 10.2343 29.4819 10.2814 29.24 10.28V10.25Z" fill="#C0C5CA"/>
<path d="M38.11 10.14V11.6H33.39V2.79H34.82V10.14H38.11Z" fill="#C0C5CA"/>
<path d="M18.17 2.92V11.47H16.52V7.92H13.26V11.47H11.64V2.92H13.26V6.31H16.52V2.92H18.17Z" fill="#C0C5CA"/>
<path d="M43.75 6.97V7.69C43.75 7.9 43.67 7.99 43.46 7.99C42.71 7.99 42.27 8.86999 42.27 9.87999V11.98C42.2622 12.2348 42.2043 12.4856 42.0996 12.718C41.9949 12.9504 41.8454 13.1599 41.6596 13.3345C41.4739 13.5091 41.2555 13.6454 41.0171 13.7355C40.7787 13.8257 40.5248 13.868 40.27 13.86H39.58C39.38 13.86 39.29 13.77 39.29 13.57V12.75C39.29 12.55 39.38 12.46 39.58 12.46H39.79C40.3 12.46 40.46 11.89 40.46 11.05V9.41C40.4086 8.98403 40.4956 8.55284 40.7081 8.1801C40.9206 7.80735 41.2473 7.51282 41.64 7.34C41.2411 7.17746 40.9076 6.88679 40.6922 6.51381C40.4767 6.14083 40.3915 5.70675 40.45 5.28V3.55999C40.45 2.70999 40.27 2.14 39.78 2.14H39.57C39.37 2.14 39.28 2.06 39.28 1.85V1.04C39.28 0.829998 39.37 0.739995 39.57 0.739995H40.26C40.5155 0.729291 40.7705 0.769716 41.0101 0.858899C41.2497 0.948083 41.4691 1.08423 41.6554 1.25935C41.8417 1.43447 41.9911 1.64503 42.095 1.87868C42.1988 2.11233 42.2549 2.36436 42.26 2.61999V4.81C42.26 5.81 42.67 6.69999 43.45 6.69999C43.64 6.66999 43.75 6.76 43.75 6.97Z" fill="#EA760B"/>
<path d="M47.93 6.97V7.69C47.93 7.9 47.84 7.99 47.63 7.99C46.88 7.99 46.44 8.86999 46.44 9.87999V11.98C46.4322 12.2348 46.3744 12.4856 46.2696 12.718C46.1649 12.9504 46.0154 13.1599 45.8297 13.3345C45.6439 13.5091 45.4256 13.6454 45.1871 13.7355C44.9487 13.8257 44.6948 13.868 44.44 13.86H43.75C43.55 13.86 43.46 13.77 43.46 13.57V12.75C43.46 12.55 43.55 12.46 43.75 12.46H43.96C44.47 12.46 44.63 11.89 44.63 11.05V9.41C44.5794 8.98287 44.6679 8.55082 44.8822 8.17793C45.0966 7.80505 45.4254 7.51121 45.82 7.34C45.423 7.17577 45.0917 6.88439 44.8781 6.51156C44.6646 6.13874 44.5808 5.70556 44.64 5.28V3.55999C44.64 2.70999 44.46 2.14 43.97 2.14H43.76C43.56 2.14 43.47 2.06 43.47 1.85V1.04C43.47 0.829998 43.56 0.739995 43.76 0.739995H44.45C44.7055 0.729291 44.9605 0.769716 45.2001 0.858899C45.4397 0.948083 45.6591 1.08423 45.8454 1.25935C46.0317 1.43447 46.1812 1.64503 46.285 1.87868C46.3888 2.11233 46.4449 2.36436 46.45 2.61999V4.81C46.45 5.81 46.86 6.69999 47.64 6.69999C47.85 6.66999 47.93 6.76 47.93 6.97Z" fill="#EA760B"/>
</svg>
