<svg width="29" height="31" viewBox="0 0 29 31" fill="none" xmlns="http://www.w3.org/2000/svg">
<path d="M22.01 10.35V6.83C22.4768 6.61221 22.8722 6.26632 23.1502 5.8326C23.4281 5.39887 23.5772 4.89513 23.58 4.38V4.28C23.5748 3.56288 23.2876 2.87662 22.7805 2.36952C22.2734 1.86243 21.5871 1.57523 20.87 1.57H20.78C20.4241 1.57 20.0717 1.64009 19.7429 1.77628C19.4141 1.91247 19.1154 2.11209 18.8638 2.36374C18.6121 2.61538 18.4125 2.91413 18.2763 3.24293C18.1401 3.57172 18.07 3.92412 18.07 4.28V4.36C18.0685 4.87736 18.2157 5.38427 18.494 5.82039C18.7723 6.2565 19.1701 6.60347 19.64 6.82V10.35C18.2939 10.5525 17.0267 11.1119 15.97 11.97L6.29 4.43C6.47281 3.73949 6.41075 3.00697 6.11437 2.35706C5.81799 1.70715 5.30559 1.18 4.66436 0.865279C4.02313 0.550559 3.29267 0.467713 2.59725 0.630835C1.90183 0.793958 1.2844 1.19297 0.849997 1.76C0.423682 2.32822 0.206188 3.02597 0.234091 3.73579C0.261995 4.44561 0.533591 5.12413 1.0032 5.65713C1.4728 6.19014 2.11172 6.54506 2.81237 6.66215C3.51302 6.77924 4.2326 6.65134 4.85 6.3L14.37 13.71C13.53 14.972 13.0813 16.454 13.08 17.97C13.0797 19.5679 13.5759 21.1264 14.5 22.43L11.64 25.28C11.4068 25.2078 11.1641 25.1707 10.92 25.17C10.4221 25.1679 9.93478 25.314 9.5201 25.5897C9.10543 25.8654 8.78213 26.2581 8.5913 26.718C8.40047 27.178 8.35074 27.6843 8.44845 28.1725C8.54616 28.6608 8.78688 29.1089 9.14001 29.46C9.49242 29.8117 9.9411 30.0511 10.4294 30.148C10.9178 30.2449 11.4238 30.195 11.8838 30.0046C12.3438 29.8142 12.7371 29.4918 13.0141 29.078C13.291 28.6643 13.4392 28.1779 13.44 27.68C13.4316 27.4285 13.3879 27.1793 13.31 26.94L16.17 24.08C17.1044 24.7926 18.189 25.2827 19.3414 25.5132C20.4937 25.7437 21.6834 25.7084 22.82 25.41C23.9553 25.1102 25.0078 24.5566 25.8982 23.791C26.7885 23.0253 27.4935 22.0676 27.96 20.99C28.4149 19.9195 28.6224 18.7602 28.567 17.5984C28.5116 16.4366 28.1947 15.3023 27.64 14.28C27.0739 13.2515 26.2807 12.3656 25.3207 11.6898C24.3607 11.014 23.2592 10.566 22.1 10.38L22.01 10.35ZM20.82 21.95C20.044 21.9316 19.2901 21.6879 18.6502 21.2485C18.0103 20.809 17.5121 20.1929 17.2163 19.4752C16.9206 18.7575 16.84 17.9693 16.9845 17.2066C17.129 16.4439 17.4923 15.7398 18.03 15.18C18.5908 14.645 19.295 14.2844 20.0569 14.1421C20.8189 13.9999 21.6057 14.082 22.3218 14.3786C23.0379 14.6753 23.6524 15.1735 24.0906 15.8129C24.5288 16.4522 24.7717 17.2051 24.79 17.98C24.79 19.0409 24.3686 20.0583 23.6184 20.8084C22.8683 21.5586 21.8509 21.98 20.79 21.98L20.82 21.95Z" fill="#FF5C35"/>
</svg>
