<svg width="25" height="23" viewBox="0 0 25 23" fill="none" xmlns="http://www.w3.org/2000/svg">
<path d="M5.03998 0H20.04C21.1327 0 22.1806 0.434076 22.9532 1.20673C23.7259 1.97938 24.16 3.0273 24.16 4.12V18.56C24.1613 19.1014 24.0556 19.6378 23.8491 20.1382C23.6425 20.6387 23.339 21.0934 22.9562 21.4762C22.5733 21.8591 22.1186 22.1625 21.6182 22.369C21.1177 22.5756 20.5814 22.6813 20.04 22.68H5.03998C3.94729 22.68 2.89936 22.2459 2.12671 21.4733C1.35406 20.7006 0.919983 19.6527 0.919983 18.56V4.12C0.922624 3.02811 1.35756 1.9817 2.12964 1.20963C2.90172 0.437547 3.9481 0.00264059 5.03998 0ZM12.8199 16.3C12.8271 16.3335 12.8464 16.3632 12.8741 16.3835C12.9017 16.4038 12.9358 16.4132 12.97 16.41H14.97C15.0633 16.41 15.0933 16.36 15.06 16.26L11.61 6.25998C11.61 6.25998 11.61 6.17999 11.49 6.17999H9.06995C9.05511 6.17842 9.04012 6.18018 9.02606 6.18515C9.012 6.19012 8.99925 6.19816 8.98871 6.20871C8.97816 6.21926 8.97012 6.23203 8.96515 6.24609C8.96018 6.26016 8.95839 6.27515 8.95996 6.28998C8.96028 6.50473 8.94019 6.71904 8.89996 6.92999C8.89996 7.04999 8.84 7.15 8.81 7.25L5.81 16.25C5.81 16.37 5.80997 16.42 5.90997 16.42H7.69C7.73322 16.4234 7.77619 16.4112 7.8111 16.3855C7.846 16.3597 7.87051 16.3223 7.88 16.28L8.58997 14.01H12.11L12.8199 16.3ZM10.28 7.98999C10.64 9.34999 11.09 10.68 11.48 11.99H9.07996C9.46996 10.71 9.88997 9.34999 10.28 7.98999ZM17.5699 7.76999C17.7193 7.71097 17.8554 7.62254 17.97 7.50998C18.0832 7.39009 18.1686 7.24669 18.22 7.09C18.2763 6.93985 18.3035 6.78033 18.3 6.62C18.3019 6.46059 18.2783 6.30191 18.23 6.14999C18.1718 6.00474 18.0908 5.86971 17.99 5.75C17.8783 5.63639 17.7441 5.54742 17.596 5.48886C17.4479 5.4303 17.2892 5.40345 17.13 5.41C16.9723 5.40999 16.8161 5.44055 16.67 5.5C16.5234 5.55414 16.3904 5.63944 16.28 5.75C16.1674 5.86459 16.079 6.0006 16.02 6.14999C15.9558 6.29792 15.9284 6.45917 15.94 6.62C15.9331 6.7797 15.9568 6.93925 16.0099 7.09C16.0653 7.24486 16.1502 7.38749 16.2599 7.50998C16.369 7.61998 16.4979 7.70823 16.64 7.76999C16.7866 7.82627 16.9429 7.85346 17.1 7.85001C17.2606 7.85835 17.4211 7.83101 17.5699 7.76999ZM16.18 16.41H18.04C18.12 16.41 18.16 16.36 18.16 16.26V8.79999C18.16 8.70999 18.16 8.66 18.04 8.66H16.17C16.09 8.66 16.05 8.65999 16.05 8.79999V16.26C16.05 16.36 16.09 16.41 16.18 16.41Z" fill="#330000"/>
</svg>
