<svg width="76" height="18" viewBox="0 0 76 18" fill="none" xmlns="http://www.w3.org/2000/svg">
<g clip-path="url(#clip0_6_143)">
<path fill-rule="evenodd" clip-rule="evenodd" d="M72.2 1.26001H75.37L69 9.88001C68.804 10.1005 68.6329 10.3419 68.49 10.6C68.2266 11.3366 68.0194 12.0921 67.87 12.86H64.98C65.2109 12.0543 65.355 11.2263 65.41 10.39C65.2985 9.61376 65.0902 8.85453 64.79 8.13001C64.58 7.37001 64.28 5.87001 64.28 5.87001H67.28L67.69 7.51001L72.22 1.23001" fill="#1A1918"/>
<path fill-rule="evenodd" clip-rule="evenodd" d="M66.21 2.95002C66.79 3.30002 67.15 5.24001 67.15 5.24001C67.15 5.24001 64.1 5.24001 62.43 5.24001H61L59.25 12.84H56.58C56.58 12.84 58.24 4.59002 58.58 3.09002C58.71 2.60002 59.46 2.69001 60.71 2.69001H62.71C64 2.69001 65.51 2.52002 66.15 2.91002" fill="#1A1918"/>
<path fill-rule="evenodd" clip-rule="evenodd" d="M53.83 6.64C53.8655 6.26775 53.7661 5.89513 53.55 5.59C53.24 5.11 52.95 5 52.13 4.97C49.81 4.9 49.86 6.62 49.86 6.62H53.86L53.83 6.64ZM56.35 4.64C56.69 5.86 56.04 8.74 56.04 8.74C56.04 8.74 52.66 8.74 50.81 8.74C50.23 8.74 49.54 8.68 49.37 8.95C49.2 9.22 49.46 9.95 49.74 10.15C50.0927 10.3655 50.4967 10.4829 50.91 10.49C52.4576 10.599 54.0104 10.6157 55.56 10.54L55.02 12.95C52.7886 13.0742 50.5503 12.9703 48.34 12.64C47.9117 12.5519 47.5187 12.3397 47.21 12.03C47.14 11.95 47.07 11.83 47 11.74C46.8817 11.5743 46.7812 11.3967 46.7 11.21C46.19 9.85 46.76 7.21 47.32 5.87C47.3857 5.68552 47.4625 5.50519 47.55 5.33C47.6321 5.14764 47.7256 4.97062 47.83 4.8C47.89 4.71 47.96 4.65 48.02 4.57C48.0884 4.47291 48.1618 4.37945 48.24 4.29C48.4569 4.05801 48.6984 3.85013 48.96 3.67C50.3322 2.79822 51.9701 2.4437 53.58 2.67C54.5 2.71776 55.3649 3.12329 55.99 3.8C56.1378 4.09334 56.2422 4.40662 56.3 4.73L56.35 4.64Z" fill="#1A1918"/>
<path fill-rule="evenodd" clip-rule="evenodd" d="M44.06 2.72H46.65C46.65 2.72 45.2 9.56 44.47 12.9H41.47C39.39 12.9 37.54 13.16 36.75 11.67C35.96 10.18 36.75 7.84 37.06 6.23C37.3 5.09 37.81 2.75 37.81 2.75H40.49C40.49 2.75 39.74 6.39 39.42 8.21C39.31 8.86 39.07 9.47 39.32 9.95C39.57 10.43 39.87 10.44 40.86 10.47H42.19L44.04 2.77" fill="#1A1918"/>
<path fill-rule="evenodd" clip-rule="evenodd" d="M31.95 7.65C32.2955 6.72569 32.5011 5.755 32.56 4.77001C32.5228 4.35602 32.3813 3.95821 32.1488 3.61371C31.9162 3.26921 31.6001 2.98927 31.2301 2.8C30.6294 2.60035 29.9851 2.57129 29.369 2.71606C28.7528 2.86084 28.1889 3.17376 27.74 3.62C27.0447 4.47775 26.617 5.52103 26.51 6.62C26.2393 7.48941 26.2393 8.4206 26.51 9.29001C27.13 10.59 29.05 10.29 31.13 10.29C31.43 9.47001 31.69 8.54001 31.95 7.63001V7.65ZM35.5401 3.85C35.8401 6 34.7001 8.37001 33.9201 10.43C34.7201 10.5 35.4101 10.43 35.4701 10.43C35.3491 11.2859 35.0996 12.1186 34.7301 12.9C34.0901 12.9 32 12.9 31.13 12.9C28.28 12.9 25.61 13.09 24.25 11.67C23.7132 11.0242 23.3669 10.2416 23.25 9.41001C23.1398 8.2375 23.2448 7.05471 23.56 5.92C23.7721 4.98917 24.1084 4.09111 24.56 3.25001C25.2012 2.06169 26.2002 1.10537 27.4153 0.516649C28.6304 -0.0720764 30.0001 -0.263332 31.33 -0.0299971C32.1209 0.0706853 32.8867 0.314674 33.59 0.690004L33.81 0.850004C34.7473 1.55877 35.3687 2.60745 35.5401 3.77001V3.85Z" fill="#1A1918"/>
<path fill-rule="evenodd" clip-rule="evenodd" d="M22.93 2.73C22.76 3.52 22.58 4.41 22.4 5.18H19.53C19.75 4.32 19.92 3.47 20.14 2.72H22.93" fill="#1A1918"/>
<path fill-rule="evenodd" clip-rule="evenodd" d="M19.42 5.89999H22.2C21.83 7.89999 21.12 11.14 20.55 13.39C20.2 14.8 19.97 15.83 19.01 16.58C18.93 16.64 18.88 16.58 18.81 16.68C18.3607 16.9077 17.8718 17.0469 17.37 17.09C16.5541 17.1398 15.736 17.1398 14.92 17.09C15.15 16.23 15.42 15.2 15.63 14.43C17.82 14.7 17.87 12.63 18.3 10.63C18.54 9.48 19.3 6.37 19.42 5.91" fill="#1A1918"/>
<path fill-rule="evenodd" clip-rule="evenodd" d="M12.96 11.14L12.9 11.29C12.409 12.2846 11.643 13.1174 10.693 13.6899C9.743 14.2624 8.64881 14.5505 7.54006 14.52C6.48171 14.5378 5.43171 14.3298 4.46004 13.91C2.87988 13.1802 1.58086 11.9549 0.760026 10.42C0.131693 9.30621 -0.110889 8.01596 0.0699624 6.75C0.250814 5.48404 0.84496 4.31334 1.76003 3.42001C1.76003 3.42001 1.50005 3.88002 1.53005 3.88002L1.47005 4.07001C-0.119952 9.07001 4.77005 13.29 9.47005 12.81C10.7772 12.6449 11.9986 12.0709 12.96 11.17" fill="#21609B"/>
<path fill-rule="evenodd" clip-rule="evenodd" d="M10.08 9.08C11.2696 9.08577 12.4144 8.62643 13.27 7.8C12.62 9.44 10.75 10.49 8.27003 10.16C7.17189 9.94591 6.16736 9.39601 5.39527 8.5863C4.62319 7.7766 4.12168 6.74707 3.96003 5.64C3.89582 4.98662 3.97631 4.32713 4.19581 3.70839C4.41531 3.08964 4.76845 2.52684 5.23005 2.06C4.9999 2.46847 4.84732 2.91601 4.78004 3.38C4.73533 4.11152 4.83942 4.8445 5.08607 5.53463C5.33271 6.22476 5.71675 6.8577 6.21497 7.39518C6.7132 7.93267 7.31527 8.36352 7.98475 8.66171C8.65423 8.95989 9.37725 9.1192 10.1101 9.13" fill="#21609B"/>
<path fill-rule="evenodd" clip-rule="evenodd" d="M13.15 4.94C12.7149 5.54212 12.1137 6.00431 11.42 6.27C10.7241 6.4585 9.98559 6.4139 9.31742 6.14302C8.64925 5.87214 8.0882 5.38989 7.72001 4.77C7.60547 4.55484 7.50845 4.33077 7.42997 4.1C7.28364 3.63442 7.26115 3.13876 7.3646 2.66182C7.46805 2.18488 7.69392 1.74311 8.01999 1.38C7.81315 1.95342 7.76817 2.57272 7.88999 3.17C7.99782 3.55582 8.16299 3.92326 8.37998 4.26C8.65996 4.68881 9.05031 5.03425 9.50998 5.26C9.68788 5.37619 9.8793 5.47022 10.08 5.54C10.5993 5.71339 11.1546 5.75018 11.6922 5.64685C12.2299 5.54352 12.7319 5.30354 13.15 4.95" fill="#21609B"/>
</g>
<defs>
<clipPath id="clip0_6_143">
<rect width="75.37" height="17.13" fill="white"/>
</clipPath>
</defs>
</svg>
