<svg width="32" height="32" viewBox="0 0 32 32" fill="none" xmlns="http://www.w3.org/2000/svg">
<path fill-rule="evenodd" clip-rule="evenodd" d="M0 0H31.18V31.18H0V0ZM14.53 13V23.13C14.5185 23.4199 14.4782 23.708 14.41 23.99C14.3442 24.201 14.2014 24.3795 14.01 24.49C13.7289 24.6733 13.4006 24.7709 13.065 24.7709C12.7294 24.7709 12.4011 24.6733 12.12 24.49C11.7011 24.2375 11.3965 23.8325 11.27 23.36L8.63 23.49C8.72627 24.4782 9.16467 25.4017 9.86945 26.101C10.5742 26.8003 11.5011 27.2314 12.49 27.32C13.356 27.4279 14.2351 27.3072 15.04 26.97C15.4299 26.777 15.7849 26.5201 16.09 26.21C16.7376 25.5234 17.0957 24.6137 17.09 23.67V13.01L14.53 13ZM26.35 19.5C25.06 18.96 22.97 18.67 22.65 17.9C22.549 17.7125 22.4861 17.5068 22.4651 17.2948C22.4441 17.0828 22.4653 16.8688 22.5276 16.6651C22.59 16.4614 22.6921 16.2721 22.8281 16.1081C22.9641 15.9442 23.1313 15.8089 23.32 15.71C23.854 15.5348 24.4336 15.5611 24.9494 15.7841C25.4653 16.007 25.8817 16.4111 26.12 16.92L28.39 15.6C27.9904 14.8317 27.3915 14.1849 26.6561 13.7275C25.9207 13.2701 25.0758 13.0188 24.21 13C23.3316 12.9349 22.4546 13.1443 21.7004 13.5994C20.9462 14.0544 20.352 14.7325 20 15.54C19.6807 16.4134 19.6457 17.3655 19.9 18.26C20.1893 19.0399 20.679 19.7298 21.32 20.26C21.9979 20.788 22.8003 21.1324 23.65 21.26C25 21.37 25.99 21.76 26.21 22.54C26.3525 22.9606 26.3238 23.4204 26.13 23.82C26 24.15 25.72 24.61 24.73 24.66C23.9085 24.7579 23.0778 24.5784 22.37 24.15C21.9924 23.834 21.7174 23.4128 21.58 22.94L19.15 23.86C19.15 23.86 20.15 26.32 21.86 26.86C23.2241 27.4258 24.7454 27.4861 26.15 27.03C26.9469 26.818 27.6469 26.3389 28.1329 25.6727C28.6189 25.0065 28.8615 24.1936 28.82 23.37C28.8201 22.5591 28.5849 21.7656 28.1429 21.0858C27.7009 20.406 27.0711 19.869 26.33 19.54L26.35 19.5Z" fill="#EBD64F"/>
</svg>
