<svg width="32" height="33" viewBox="0 0 32 33" fill="none" xmlns="http://www.w3.org/2000/svg">
<path d="M12.75 24.4L23.81 18.09L18.81 15.19L7.80999 21.56L12.75 24.4ZM24.32 11.49L19.32 8.59V14.28L24.32 17.18V11.49ZM24.82 4.83L19.82 7.72L24.82 10.62L29.82 7.72L24.82 4.83ZM9.33001 19.48L12.25 17.8V5.18L7.25 8.07V20.69L9.33001 19.48ZM6.71002 1.41L1.71002 4.31L6.71002 7.2L11.71 4.31L6.71002 1.41ZM1.17999 5.18V24.69L12.25 31.06V25.28L6.46002 22.01H6.41003V21.96V21.91C6.41437 21.8902 6.41437 21.8698 6.41003 21.85V21.8C6.41432 21.7735 6.41432 21.7465 6.41003 21.72C6.41475 21.7037 6.41475 21.6863 6.41003 21.67V8.17L3.5 6.49L1.17999 5.18ZM24.32 24.69V18.95L13.25 25.28V31.06L24.32 24.69ZM30.32 14.32V8.59L25.32 11.49V17.22L30.32 14.32ZM31.32 7.59C31.3256 7.6365 31.3256 7.6835 31.32 7.73V14.61C31.3202 14.6988 31.2973 14.786 31.2534 14.8632C31.2096 14.9404 31.1464 15.0048 31.07 15.05L25.29 18.38V24.98C25.2885 25.0671 25.2648 25.1523 25.221 25.2275C25.1772 25.3028 25.1149 25.3656 25.04 25.41L12.97 32.41C12.9436 32.4154 12.9164 32.4154 12.89 32.41H12.76H12.63H12.55L0.480038 25.46C0.403782 25.4172 0.340344 25.3547 0.296383 25.2791C0.252421 25.2035 0.229539 25.1175 0.230038 25.03V4.28C0.225221 4.23346 0.225221 4.18654 0.230038 4.14V4.06V4.01V3.95H0.280026L0.340023 3.9L6.34002 0.43C6.41777 0.381256 6.50832 0.356878 6.60003 0.36C6.68843 0.358266 6.77539 0.382613 6.85003 0.43L12.85 3.9L12.91 3.95H12.96C12.9629 3.9699 12.9629 3.9901 12.96 4.01V4.08C12.9654 4.11982 12.9654 4.16018 12.96 4.2V17.11L17.96 14.21V7.61C17.9545 7.56684 17.9545 7.52316 17.96 7.48V7.4V7.34H18.01L24.01 3.86C24.0868 3.81898 24.1729 3.79832 24.26 3.8C24.3471 3.79832 24.4332 3.81898 24.51 3.86L30.51 7.34C30.5264 7.33577 30.5436 7.33577 30.56 7.34V7.4V7.48L31.32 7.59Z" fill="#C53837"/>
</svg>
