<svg width="32" height="34" viewBox="0 0 32 34" fill="none" xmlns="http://www.w3.org/2000/svg">
<path d="M17.18 0.659996C16.7476 0.423674 16.2628 0.299828 15.77 0.299828C15.2772 0.299828 14.7924 0.423674 14.36 0.659996L1.55998 7.73C1.14729 7.94433 0.800793 8.26703 0.557663 8.66344C0.314533 9.05984 0.183951 9.51498 0.179977 9.98V24.21C0.191162 24.686 0.333357 25.1497 0.590927 25.5502C0.848497 25.9507 1.2115 26.2724 1.64 26.48C2.87 27.13 4.05998 27.85 5.30998 28.48C6.03177 28.8582 6.8304 29.0665 7.64494 29.089C8.45948 29.1115 9.26841 28.9477 10.01 28.61C10.5611 28.2773 11.0114 27.8009 11.3126 27.232C11.6138 26.663 11.7546 26.0228 11.72 25.38C11.72 20.69 11.72 15.99 11.72 11.3C11.727 11.2477 11.723 11.1945 11.7084 11.1439C11.6937 11.0932 11.6686 11.0461 11.6347 11.0057C11.6008 10.9653 11.5589 10.9323 11.5116 10.9089C11.4643 10.8856 11.4127 10.8723 11.36 10.87H9.72002C9.67028 10.8658 9.62018 10.8721 9.57298 10.8883C9.52578 10.9045 9.48252 10.9304 9.44585 10.9642C9.40917 10.9981 9.37991 11.0392 9.35997 11.0849C9.34003 11.1307 9.32983 11.1801 9.33 11.23C9.33 15.89 9.33 20.56 9.33 25.23C9.33135 25.5499 9.23677 25.8628 9.05852 26.1284C8.88027 26.394 8.62653 26.6001 8.33 26.72C6.89 27.22 2.79002 24.56 2.79002 24.56C2.71597 24.5241 2.65441 24.4668 2.61339 24.3954C2.57237 24.3241 2.55375 24.2421 2.55998 24.16V10.05C2.55189 9.95868 2.57391 9.86722 2.62267 9.78958C2.67142 9.71194 2.74423 9.65238 2.83 9.62L15.59 2.62C15.664 2.57055 15.751 2.54417 15.84 2.54417C15.929 2.54417 16.016 2.57055 16.09 2.62L28.85 9.62C28.9339 9.65791 29.0044 9.72011 29.0525 9.79855C29.1007 9.87699 29.1242 9.96806 29.12 10.06C29.12 14.76 29.12 19.4533 29.12 24.14C29.13 24.2213 29.1141 24.3037 29.0746 24.3755C29.0351 24.4474 28.9741 24.5049 28.9 24.54C24.68 26.87 20.42 29.12 16.25 31.54C16.06 31.65 15.86 31.76 15.65 31.65L12.38 29.8C12.3208 29.7604 12.2512 29.7393 12.18 29.7393C12.1088 29.7393 12.0392 29.7604 11.98 29.8C11.4889 30.0589 10.9849 30.2925 10.47 30.5C9.68002 30.81 9.80002 30.94 10.47 31.35L14.31 33.52C14.7343 33.7825 15.2205 33.9282 15.7192 33.9422C16.218 33.9563 16.7116 33.8382 17.15 33.6L29.95 26.54C30.3741 26.3287 30.7323 26.0056 30.9861 25.6055C31.2399 25.2055 31.3796 24.7437 31.39 24.27V9.98C31.3842 9.52291 31.2571 9.07556 31.0217 8.68373C30.7862 8.2919 30.4509 7.96967 30.05 7.75L17.18 0.659996Z" fill="#88B74F"/>
<path d="M23.64 11.34C21.9105 10.5639 20.0004 10.2802 18.12 10.52C16.7441 10.5699 15.4258 11.0846 14.38 11.98C13.9037 12.4747 13.5797 13.096 13.4467 13.7698C13.3137 14.4436 13.3774 15.1414 13.63 15.78C13.8279 16.2119 14.1173 16.5957 14.4782 16.9048C14.8391 17.2138 15.2628 17.4408 15.72 17.57C16.877 17.9258 18.0719 18.144 19.28 18.22C20.3822 18.3009 21.474 18.4884 22.54 18.78C22.97 18.92 23.47 19.14 23.6 19.61C23.6702 19.8921 23.6646 20.1876 23.5838 20.4669C23.503 20.7461 23.3499 20.999 23.14 21.2C21.7 22.33 17.72 22.2 16.3 21.26C16.0383 21.057 15.8215 20.8021 15.6632 20.5112C15.5049 20.2204 15.4085 19.8999 15.38 19.57C15.3801 19.5197 15.3699 19.4699 15.35 19.4236C15.3302 19.3774 15.3012 19.3357 15.2647 19.301C15.2281 19.2664 15.185 19.2396 15.1378 19.2222C15.0905 19.2048 15.0402 19.1973 14.99 19.2C14.45 19.2 13.9 19.2 13.36 19.2C13.2659 19.1886 13.1713 19.2148 13.0964 19.2729C13.0215 19.3309 12.9725 19.4161 12.96 19.51C12.85 22.45 15.55 23.73 18.08 24.02C19.5308 24.1807 20.9975 24.12 22.43 23.84C23.5192 23.6213 24.5165 23.0774 25.29 22.28C25.7182 21.7672 26.0059 21.1521 26.1251 20.4948C26.2443 19.8375 26.1909 19.1605 25.97 18.53C25.7804 18.0819 25.4907 17.6832 25.1233 17.3643C24.7558 17.0454 24.3203 16.8147 23.85 16.69C22.6081 16.2987 21.3272 16.0439 20.03 15.93C18.39 15.78 16.46 15.84 16.03 14.77C15.9291 14.487 15.9212 14.1791 16.0076 13.8913C16.0939 13.6034 16.27 13.3507 16.51 13.17C17.88 12.24 20.65 12.36 22.07 13.06C22.3759 13.2338 22.6401 13.4724 22.844 13.7592C23.0479 14.046 23.1864 14.3739 23.25 14.72C23.25 14.92 23.41 15.13 23.64 15.12H25.26C25.3518 15.1307 25.4445 15.1084 25.5214 15.0571C25.5984 15.0058 25.6545 14.9289 25.68 14.84C25.6762 14.1291 25.4858 13.4316 25.1277 12.8174C24.7697 12.2032 24.2567 11.6937 23.64 11.34Z" fill="#88B74F"/>
</svg>
