<svg width="52" height="20" viewBox="0 0 52 20" fill="none" xmlns="http://www.w3.org/2000/svg">
<g clip-path="url(#clip0_5_122)">
<path d="M22.75 5.76001V10.19H25.46V5.76001H22.75ZM22.75 5.76001V10.19H25.46V5.76001H22.75ZM22.75 5.76001V10.19H25.46V5.76001H22.75ZM22.75 5.76001V10.19H25.46V5.76001H22.75ZM22.75 5.76001V10.19H25.46V5.76001H22.75ZM22.75 5.76001V10.19H25.46V5.76001H22.75ZM22.75 5.76001V10.19H25.46V5.76001H22.75Z" fill="#C53837"/>
<path d="M0.0400391 0V16H14.39V19.19H25.55V16H51.04V0H0.0400391ZM14.36 12.76H11.55V5.75999H8.75006V12.76H3.23004V3.19H14.36V12.76ZM28.36 12.76H22.84V15.95H17.22V3.19H28.36V12.76ZM47.92 12.76H45.04V5.75999H42.23V12.76H39.4301V5.75999H36.62V12.76H31.04V3.19H47.79L47.92 12.76Z" fill="#C53837"/>
</g>
<defs>
<clipPath id="clip0_5_122">
<rect width="51.02" height="19.14" fill="white"/>
</clipPath>
</defs>
</svg>
