<svg width="25" height="24" viewBox="0 0 25 24" fill="none" xmlns="http://www.w3.org/2000/svg">
<path d="M4.99 0.780011H19.99C20.5314 0.778692 21.0677 0.884342 21.5682 1.09092C22.0686 1.29751 22.5234 1.60094 22.9062 1.98378C23.289 2.36662 23.5925 2.82133 23.7991 3.32179C24.0056 3.82225 24.1113 4.35859 24.11 4.90001V19.34C24.1113 19.8814 24.0056 20.4178 23.7991 20.9182C23.5925 21.4187 23.289 21.8734 22.9062 22.2562C22.5234 22.6391 22.0686 22.9425 21.5682 23.1491C21.0677 23.3556 20.5314 23.4613 19.99 23.46H4.99C4.44859 23.4613 3.91221 23.3556 3.41176 23.1491C2.9113 22.9425 2.45658 22.6391 2.07374 22.2562C1.6909 21.8734 1.3875 21.4187 1.18092 20.9182C0.974338 20.4178 0.868688 19.8814 0.870007 19.34V4.90001C0.868688 4.35859 0.974338 3.82225 1.18092 3.32179C1.3875 2.82133 1.6909 2.36662 2.07374 1.98378C2.45658 1.60094 2.9113 1.29751 3.41176 1.09092C3.91221 0.884342 4.44859 0.778692 4.99 0.780011ZM6.09999 16.68C6.09999 16.77 6.09998 16.81 6.21998 16.81H8.09999C8.11673 16.8089 8.13301 16.8042 8.14784 16.7963C8.16267 16.7885 8.17568 16.7776 8.18605 16.7644C8.19641 16.7512 8.2039 16.736 8.20802 16.7197C8.21214 16.7035 8.21281 16.6865 8.20997 16.67V13.56H9.11C9.85035 13.578 10.5881 13.4663 11.29 13.23C11.9164 13.0017 12.4598 12.5906 12.85 12.05C13.2574 11.4425 13.4606 10.7209 13.43 9.99C13.4286 9.56057 13.3542 9.1345 13.21 8.72999C13.0542 8.31408 12.8123 7.93582 12.5 7.62001C12.133 7.26047 11.6881 6.99016 11.2 6.83C10.5575 6.60769 9.87942 6.50599 9.19996 6.53001H8.34999H7.50996H6.22999C6.15999 6.53001 6.13002 6.53 6.13002 6.64V16.64L6.09999 16.68ZM8.21998 8.47001H9.21998C9.61242 8.45167 10.0043 8.51642 10.37 8.66002C10.6463 8.76724 10.881 8.95994 11.04 9.21C11.1991 9.46801 11.279 9.76703 11.27 10.07C11.2921 10.4284 11.1857 10.783 10.97 11.07C10.7559 11.3133 10.4792 11.4932 10.17 11.59C9.81052 11.7016 9.43641 11.7589 9.06001 11.76H8.53999H8.17V8.50001L8.21998 8.47001ZM19.48 11.14C19.5348 11.1607 19.5952 11.1607 19.65 11.14C19.6658 11.1286 19.6786 11.1136 19.6874 11.0962C19.6961 11.0788 19.7004 11.0595 19.7 11.04V9.46C19.7047 9.42349 19.7047 9.38653 19.7 9.35002C19.6795 9.30822 19.6437 9.27594 19.6 9.25999C19.3342 9.1506 19.0551 9.07664 18.77 9.03999C18.3728 8.9802 17.9717 8.95012 17.57 8.94999C16.978 8.92844 16.3892 9.04484 15.85 9.28999C15.4374 9.48343 15.09 9.79266 14.85 10.18C14.6338 10.5319 14.5195 10.937 14.52 11.35C14.5053 11.6968 14.5811 12.0414 14.74 12.35C14.9205 12.6765 15.1737 12.9571 15.48 13.17C15.9007 13.4679 16.3621 13.7036 16.85 13.87C17.1859 13.98 17.5054 14.1348 17.8 14.33C17.8675 14.3711 17.9237 14.4282 17.9638 14.4962C18.004 14.5642 18.0267 14.6411 18.03 14.72C18.031 14.8049 18.0068 14.8882 17.9606 14.9594C17.9143 15.0305 17.848 15.0864 17.77 15.12C17.5179 15.2284 17.2439 15.2763 16.97 15.26C16.5817 15.2606 16.1951 15.2102 15.82 15.11C15.3977 15.0174 14.9928 14.8588 14.62 14.64C14.62 14.64 14.62 14.64 14.54 14.64C14.5336 14.6542 14.5303 14.6695 14.5303 14.685C14.5303 14.7005 14.5336 14.7158 14.54 14.73V16.41C14.538 16.4478 14.5463 16.4853 14.5639 16.5188C14.5815 16.5522 14.6077 16.5803 14.64 16.6C14.9591 16.7445 15.2951 16.8486 15.64 16.91C16.0754 16.9901 16.5172 17.0302 16.96 17.03C17.5586 17.0503 18.1548 16.9447 18.71 16.72C19.1513 16.5491 19.5311 16.2495 19.8 15.86C20.0541 15.4782 20.1865 15.0285 20.18 14.57C20.1916 14.2224 20.1123 13.8777 19.95 13.57C19.7702 13.2421 19.5083 12.9664 19.19 12.77C18.7208 12.4795 18.2211 12.2414 17.7 12.06C17.4646 11.9655 17.2342 11.8586 17.01 11.74C16.8837 11.6762 16.7715 11.5878 16.68 11.48C16.6213 11.4092 16.5864 11.3217 16.58 11.23C16.5805 11.1373 16.6083 11.0469 16.66 10.97C16.7309 10.8676 16.8382 10.7961 16.96 10.77C17.1485 10.7166 17.3442 10.693 17.54 10.7C17.907 10.7032 18.2725 10.7468 18.63 10.83C18.9547 10.8931 19.2681 11.0043 19.56 11.16L19.48 11.14Z" fill="#001E36"/>
</svg>
