<svg width="32" height="32" viewBox="0 0 32 32" fill="none" xmlns="http://www.w3.org/2000/svg">
<g clip-path="url(#clip0_3_104)">
<path d="M15.59 0C11.4553 0 7.48988 1.64252 4.56619 4.56621C1.6425 7.4899 0 11.4553 0 15.59C0 19.7247 1.6425 23.6901 4.56619 26.6138C7.48988 29.5375 11.4553 31.18 15.59 31.18C17.6373 31.18 19.6646 30.7767 21.556 29.9933C23.4475 29.2098 25.1661 28.0615 26.6138 26.6138C28.0615 25.1661 29.2098 23.4475 29.9933 21.556C30.7768 19.6646 31.18 17.6373 31.18 15.59C31.18 11.4553 29.5375 7.4899 26.6138 4.56621C23.6901 1.64252 19.7247 0 15.59 0ZM11.71 15.41C11.6503 15.9387 11.5086 16.4549 11.29 16.94C11.0816 17.4376 10.7871 17.8946 10.42 18.29C10.0476 18.7609 9.54251 19.1093 8.97 19.29C8.44681 19.4216 7.90949 19.4888 7.37 19.49H5.75L5.23999 22.29H3.39999L5.29999 11.72H8.92999C9.36745 11.6833 9.80719 11.7554 10.21 11.93C10.5996 12.113 10.9418 12.3833 11.21 12.72C11.7252 13.5155 11.9049 14.4825 11.71 15.41ZM18.44 19.47H16.54L17.41 14.79C17.5041 14.4579 17.4757 14.103 17.33 13.79C17.18 13.58 16.87 13.48 16.39 13.48H14.89L13.78 19.48H11.91L13.86 8.91H15.73L15.2 11.72H16.88C17.6162 11.6823 18.3431 11.8976 18.94 12.33C19.4 12.73 19.54 13.47 19.35 14.57L18.44 19.47ZM27.33 16.92C27.1312 17.4203 26.8394 17.8784 26.47 18.27C26.0927 18.7357 25.5893 19.0829 25.02 19.27C24.4968 19.4016 23.9595 19.4688 23.42 19.47H21.79L21.24 22.29H19.36L21.36 11.74H24.96C25.3907 11.7086 25.8227 11.7806 26.22 11.95C26.6097 12.1237 26.9524 12.3877 27.22 12.72C27.4697 13.1177 27.6426 13.5586 27.73 14.02C27.8198 14.479 27.8198 14.951 27.73 15.41C27.6747 15.9308 27.5398 16.4401 27.33 16.92Z" fill="#838CB9"/>
<path fill-rule="evenodd" clip-rule="evenodd" d="M9.75 15.42C9.55 16.64 9.15999 17.36 8.57999 17.56C7.87813 17.7774 7.14406 17.8721 6.41 17.84H6.06L6.87 13.44H7.44998C8.06111 13.4181 8.67189 13.4924 9.25998 13.66C9.74998 13.79 9.91 14.39 9.75 15.42Z" fill="#838CB9"/>
<path fill-rule="evenodd" clip-rule="evenodd" d="M25.82 15.39C25.65 16.61 25.23 17.33 24.65 17.53C23.9481 17.7474 23.214 17.8421 22.48 17.81H22.13L22.94 13.41H23.22H23.53C24.1379 13.3875 24.7454 13.4617 25.33 13.63C25.82 13.76 25.98 14.39 25.82 15.39Z" fill="#838CB9"/>
</g>
<defs>
<clipPath id="clip0_3_104">
<rect width="31.18" height="31.18" fill="white"/>
</clipPath>
</defs>
</svg>
