<svg width="24" height="32" viewBox="0 0 24 32" fill="none" xmlns="http://www.w3.org/2000/svg">
<path d="M9.84999 31.86C7.22328 31.7274 4.64958 31.0712 2.28001 29.93C1.42696 29.5159 0.706534 28.8716 0.199997 28.07L0.0200043 27.7V4.79999L0.159988 4.51C0.799988 3.22 2.82 2.05999 5.64 1.36999C6.78224 1.09626 7.94148 0.899162 9.11 0.779995C10.8941 0.64496 12.6859 0.64496 14.47 0.779995C17.0268 0.975486 19.5075 1.74086 21.73 3.01999C22.33 3.41994 22.8324 3.94968 23.2 4.57L23.38 4.96V16.38V27.79L23.23 28.09C23.0795 28.3538 22.8982 28.5989 22.69 28.82C21.35 30.23 18.5 31.27 14.75 31.72C13.98 31.81 10.66 31.88 9.87999 31.83L9.84999 31.86ZM15.23 22.04C15.23 22.04 14.78 21.63 14.23 21.18L13.23 20.32C13.23 20.32 13.3 20.21 13.44 20.12C13.6698 19.9724 13.8784 19.7941 14.06 19.59C14.3479 19.2831 14.5707 18.9211 14.7151 18.5258C14.8594 18.1306 14.9223 17.7102 14.9 17.29C14.918 16.8662 14.8502 16.4432 14.7007 16.0462C14.5512 15.6493 14.3231 15.2866 14.03 14.98C13.7383 14.6882 13.3874 14.4622 13.001 14.3173C12.6146 14.1724 12.2017 14.112 11.79 14.14C11.1006 14.1216 10.4259 14.3412 9.87953 14.7619C9.33313 15.1827 8.94836 15.7788 8.78999 16.45C8.65986 17.0834 8.65986 17.7366 8.78999 18.37C8.9426 18.9168 9.24727 19.4092 9.66856 19.7897C10.0899 20.1703 10.6105 20.4236 11.17 20.52C11.3063 20.5269 11.4393 20.5647 11.5588 20.6305C11.6783 20.6963 11.7813 20.7885 11.86 20.9L12.57 21.65L13 22.1H14.13C14.5011 22.119 14.8731 22.0988 15.24 22.04H15.23ZM11.35 18.88C11.228 18.8252 11.1183 18.7466 11.0273 18.6487C10.9362 18.5508 10.8657 18.4356 10.82 18.31C10.6783 17.997 10.6297 17.6499 10.68 17.31C10.6256 16.9702 10.6743 16.6218 10.82 16.31C10.8903 16.1218 11.0157 15.9591 11.1798 15.8431C11.3439 15.7272 11.5391 15.6634 11.74 15.66C12.35 15.66 12.74 15.91 12.89 16.66C13.0142 17.0318 13.0264 17.4319 12.925 17.8106C12.8237 18.1893 12.6133 18.5299 12.32 18.79C12.1649 18.8682 11.9937 18.909 11.82 18.909C11.6463 18.909 11.4751 18.8682 11.32 18.79L11.35 18.88ZM6.34999 20.51C7.52999 20.28 8.2 19.59 8.2 18.6C8.2 17.61 7.76999 17.22 6.56999 16.68C5.87999 16.37 5.62999 16.18 5.62999 15.95C5.62999 15.72 5.87 15.56 6.14 15.51C6.62202 15.4978 7.10156 15.5828 7.55 15.76L7.90001 15.9V14.34L7.52 14.25C7.0863 14.1872 6.64813 14.1604 6.21001 14.17C5.78482 14.1218 5.35424 14.1697 4.95 14.31C4.55832 14.4297 4.21779 14.6767 3.98232 15.0118C3.74684 15.3469 3.6299 15.7509 3.65001 16.16C3.65001 17 4.10001 17.52 5.21001 18C5.86001 18.28 6.12001 18.49 6.12001 18.74C6.12001 19.27 5.22999 19.34 4.28999 18.87L3.78001 18.62C3.73337 18.8873 3.71658 19.159 3.73 19.43C3.73 20.26 3.73 20.26 3.89 20.32C4.68444 20.5537 5.51904 20.6184 6.34001 20.51H6.34999ZM19.9 19.74V19.04H17.76V14.2H15.86V20.44H19.86V19.74H19.9ZM13.29 7.4C14.8316 7.33148 16.3578 7.06255 17.83 6.59999C19.07 6.18999 19.83 5.69 19.97 5.14C20.0064 5.05815 20.0252 4.96957 20.0252 4.87999C20.0252 4.79042 20.0064 4.70184 19.97 4.61999C19.57 3.61999 17.36 2.79 13.97 2.47C12.1544 2.33456 10.3302 2.36468 8.52 2.55999C6.91251 2.67687 5.35291 3.15912 3.96001 3.97C2.42001 5.19 4.04999 6.52 7.81999 7.15C9.63237 7.42999 11.4697 7.5138 13.3 7.4H13.29Z" fill="#00B9EF"/>
</svg>
