<svg width="37" height="23" viewBox="0 0 37 23" fill="none" xmlns="http://www.w3.org/2000/svg">
<path d="M9.81001 8.03C10.99 3.29 13.9533 0.919998 18.7 0.919998C25.82 0.919998 26.7 6.25 30.27 7.14C32.64 7.73 34.71 6.85 36.49 4.47C35.31 9.22333 32.3467 11.5967 27.6 11.59C20.48 11.59 19.6 6.25 16.03 5.36C13.6633 4.77333 11.59 5.66333 9.81001 8.03ZM0.909988 18.71C2.09666 13.9633 5.06335 11.59 9.81001 11.59C16.92 11.59 17.81 16.93 21.37 17.82C23.7433 18.4067 25.82 17.5167 27.6 15.15C26.4067 19.89 23.44 22.26 18.7 22.26C11.59 22.26 10.7 16.93 7.14 16.04C4.77333 15.44 2.69666 16.33 0.909988 18.71Z" fill="#0EA2E6"/>
</svg>
