<svg width="32" height="32" viewBox="0 0 32 32" fill="none" xmlns="http://www.w3.org/2000/svg">
<path d="M15.85 0.610001C11.7161 0.61265 7.75227 2.25601 4.82915 5.17913C1.90603 8.10225 0.262644 12.0661 0.259995 16.2C0.265287 20.3331 1.90953 24.2954 4.83208 27.218C7.75462 30.1405 11.7169 31.7847 15.85 31.79C19.9823 31.7821 23.9431 30.137 26.865 27.215C29.787 24.2931 31.4321 20.3323 31.44 16.2C31.4347 12.0669 29.7905 8.1046 26.868 5.18205C23.9454 2.25951 19.9831 0.615293 15.85 0.610001ZM1.85002 16.2C1.84979 14.233 2.26195 12.2878 3.05998 10.49L9.74998 28.81C7.37726 27.6661 5.3754 25.8759 3.97441 23.6453C2.57342 21.4147 1.83016 18.8341 1.83 16.2H1.85002ZM15.85 30.2C14.4961 30.2053 13.1486 30.0132 11.85 29.63L16.05 17.41L20.4 29.28C20.4273 29.3463 20.4607 29.41 20.5 29.47C19.0026 29.9763 17.4306 30.2265 15.85 30.21V30.2ZM17.78 9.61C18.62 9.61 19.38 9.48 19.38 9.48C19.5208 9.45381 19.6469 9.37645 19.7341 9.26282C19.8213 9.14918 19.8633 9.00731 19.8522 8.86452C19.841 8.72174 19.7774 8.58814 19.6736 8.48945C19.5698 8.39076 19.4332 8.33396 19.29 8.33C19.29 8.33 17.02 8.5 15.56 8.5C14.1 8.5 11.87 8.33 11.87 8.33C11.7268 8.33396 11.5902 8.39076 11.4864 8.48945C11.3826 8.58814 11.319 8.72174 11.3078 8.86452C11.2967 9.00731 11.3387 9.14918 11.4259 9.26282C11.5131 9.37645 11.6392 9.45381 11.78 9.48C11.78 9.48 12.49 9.57 13.25 9.61L15.43 15.61L12.36 24.81L7.25999 9.62C8.09999 9.62 8.85997 9.49 8.85997 9.49C9.00078 9.46381 9.12692 9.38645 9.2141 9.27282C9.30127 9.15918 9.34337 9.01731 9.3322 8.87453C9.32102 8.73174 9.25741 8.59814 9.15361 8.49945C9.04982 8.40076 8.91317 8.34396 8.77 8.34C8.77 8.34 6.50002 8.51 5.04002 8.51H4.14C5.41431 6.56776 7.15191 4.97313 9.19615 3.86983C11.2404 2.76653 13.5271 2.18925 15.85 2.19C19.3541 2.18224 22.7322 3.49636 25.31 5.87H25.13C24.8121 5.87906 24.4992 5.95067 24.2091 6.08073C23.9189 6.2108 23.6573 6.39677 23.439 6.62801C23.2208 6.85926 23.0502 7.13124 22.9371 7.42843C22.824 7.72561 22.7707 8.04217 22.78 8.36C22.9246 9.55898 23.3988 10.6944 24.15 11.64C24.8901 12.7965 25.2919 14.1371 25.31 15.51C25.1651 17.0623 24.805 18.5869 24.24 20.04L22.84 24.71L17.78 9.61ZM22.89 28.28L27.18 15.9C27.8506 14.3167 28.2105 12.6192 28.24 10.9C28.2418 10.4185 28.2118 9.93749 28.15 9.46C29.2761 11.5241 29.8642 13.8387 29.86 16.19C29.857 18.6388 29.2118 21.0439 27.9888 23.1654C26.7657 25.2868 25.0076 27.0504 22.89 28.28Z" fill="#0675BF"/>
</svg>
