<svg width="40" height="21" viewBox="0 0 40 21" fill="none" xmlns="http://www.w3.org/2000/svg">
<path d="M32.18 7.8C31.7813 8.29737 31.2293 8.64894 30.61 8.8C30.2084 8.90164 29.801 8.97845 29.39 9.03C29.06 9.03 28.92 8.9 29.01 8.58C29.26 7.64 29.52 6.70001 29.79 5.77001C29.87 5.45001 30 5.36 30.36 5.37C31.0219 5.40766 31.6475 5.68491 32.12 6.15C32.3288 6.37073 32.4501 6.66 32.4612 6.96369C32.4722 7.26737 32.3723 7.56468 32.18 7.8Z" fill="black"/>
<path d="M38.93 13.23C38.02 13.23 37.1 13.23 36.18 13.23H34.18C34.1405 13.2243 34.1028 13.2097 34.0698 13.1872C34.0369 13.1646 34.0096 13.1348 33.99 13.1C33.99 13.1 34.04 12.97 34.09 12.91C34.1498 12.8675 34.2134 12.8307 34.28 12.8C34.8533 12.4113 35.4041 11.9906 35.93 11.54C36.5956 10.937 37.134 10.2071 37.5135 9.39308C37.893 8.57909 38.106 7.69746 38.14 6.79998C38.1986 5.72876 37.93 4.66505 37.37 3.74998C36.7253 2.70696 35.8047 1.86251 34.71 1.30998C33.1227 0.469226 31.3562 0.0233059 29.56 0.00997392C21.78 0.00997392 13.99 0.00997392 6.21003 0.00997392C5.90438 0.0014574 5.60053 0.0594762 5.31953 0.180003C5.03852 0.300529 4.78708 0.480683 4.58259 0.708003C4.37809 0.935322 4.22543 1.20437 4.1352 1.49652C4.04497 1.78866 4.01931 2.09693 4.06 2.39997C4.16 3.33997 4.21003 4.27998 4.27003 5.21998C4.28013 5.28119 4.27684 5.34385 4.26044 5.40368C4.24404 5.46351 4.21489 5.51907 4.17499 5.56657C4.13509 5.61407 4.0854 5.65238 4.0293 5.67886C3.97321 5.70534 3.91207 5.71937 3.85004 5.71998H3.54999H0.790045C0.270045 5.71998 0.0499942 5.92997 0.0499942 6.42997V9.73998C0.0467984 10.1646 0.157293 10.5824 0.370001 10.95C1.1 12.18 1.85003 13.39 2.59003 14.61C3.59003 16.18 4.51003 17.74 5.46003 19.32C5.63764 19.6497 5.90426 19.923 6.22956 20.1086C6.55486 20.2942 6.92575 20.3848 7.29999 20.37H37.39C37.74 20.37 37.88 20.27 37.97 19.95C38.52 18.02 39.06 16.08 39.62 14.15C39.6609 14.0427 39.6739 13.9268 39.658 13.8131C39.642 13.6994 39.5975 13.5916 39.5286 13.4998C39.4597 13.4079 39.3687 13.335 39.264 13.2879C39.1594 13.2407 39.0444 13.2208 38.93 13.23ZM3.76002 9.02998L2.66004 10.47C2.57815 10.547 2.48752 10.6141 2.39002 10.67C2.23002 10.54 2.03001 10.45 1.94001 10.29C1.85001 10.13 1.94004 9.99998 2.03004 9.87998C2.20877 9.60944 2.40236 9.34904 2.60999 9.09999C2.64779 9.06277 2.67782 9.01839 2.69831 8.96946C2.7188 8.92053 2.72938 8.86803 2.72938 8.81498C2.72938 8.76194 2.7188 8.70941 2.69831 8.66049C2.67782 8.61156 2.64779 8.5672 2.60999 8.52998C2.38999 8.26998 2.19 7.98998 1.99 7.71998C1.79 7.44998 1.86 7.33997 2.12 7.14997C2.38 6.95997 2.52001 6.97997 2.69001 7.20997L3.74 8.57998C3.80197 8.63721 3.83885 8.7166 3.8426 8.80087C3.84634 8.88514 3.81667 8.96748 3.76002 9.02998ZM27.76 14.58C27.43 15.79 27.09 17 26.76 18.21C26.72 18.395 26.6156 18.5599 26.4655 18.6753C26.3153 18.7906 26.1291 18.849 25.94 18.84H22.67C22.2 18.84 22.02 18.58 22.14 18.13C22.8934 15.37 23.64 12.6166 24.38 9.86997L25.52 5.67997C25.52 5.61997 25.52 5.54998 25.52 5.47998H25.44C25.44 5.55998 25.33 5.63998 25.29 5.71998C24.2834 7.63331 23.2834 9.54331 22.29 11.45C21.65 12.66 21.02 13.87 20.39 15.08C19.76 16.29 19.16 17.41 18.55 18.57C18.5093 18.6616 18.4414 18.7386 18.3556 18.7904C18.2698 18.8423 18.1701 18.8666 18.07 18.86H15.48C15.09 18.86 14.94 18.68 14.94 18.25C14.94 16.35 14.94 14.44 14.94 12.53C14.94 11.94 14.94 11.34 14.94 10.75C14.9467 10.6468 14.9467 10.5432 14.94 10.44C14.85 10.54 14.79 10.58 14.77 10.63C14.02 12.25 13.27 13.86 12.53 15.48L11.1 18.54C11.0593 18.6449 10.9857 18.7339 10.8901 18.7934C10.7945 18.8529 10.6822 18.8798 10.57 18.87H7.57001C7.21001 18.87 7.05004 18.72 7.03004 18.37L6.67005 13.49C6.54005 11.79 6.41005 10.09 6.29005 8.38998C6.17005 6.84998 6.07003 5.30997 5.96003 3.75997C5.96003 3.25997 5.88003 2.75998 5.84003 2.24998C5.80003 1.73998 5.96001 1.58998 6.44001 1.58998H10.44C10.95 1.58998 11.07 1.70998 11.07 2.22998V8.56997C11.07 8.66997 11.07 8.76998 11.07 8.87998H11.14C11.2003 8.80133 11.2538 8.7177 11.3 8.62998C11.96 7.23998 12.61 5.84998 13.3 4.44998C13.7 3.59998 14.11 2.74997 14.5 1.89997C14.537 1.79661 14.607 1.70829 14.6992 1.64865C14.7913 1.589 14.9006 1.56136 15.01 1.56997H18.01C18.38 1.56997 18.54 1.74998 18.54 2.12998C18.54 4.25665 18.54 6.37998 18.54 8.49998C18.5503 8.61811 18.5704 8.73518 18.6 8.84999C18.679 8.7542 18.7524 8.65404 18.82 8.54998C19.8733 6.32332 20.92 4.09331 21.96 1.85998C22.0072 1.76247 22.0836 1.6821 22.1786 1.63011C22.2736 1.57812 22.3825 1.55709 22.49 1.56997H26.39C27.71 1.56997 29.04 1.51997 30.39 1.56997C32.2241 1.60807 33.9893 2.27534 35.39 3.45997C36.0574 4.00538 36.5349 4.74813 36.7541 5.58171C36.9733 6.41528 36.9228 7.29685 36.61 8.09999C36.1437 9.49208 35.1686 10.6565 33.88 11.36C32.3895 12.2508 30.7117 12.7816 28.98 12.91L28.24 12.98L27.76 14.58ZM32.4 15.83C32.32 15.83 32.17 15.89 32.13 15.83C31.32 14.92 30.01 15.59 29.72 16.72C29.6047 17.0469 29.6227 17.4061 29.77 17.72C29.9146 17.9326 30.1355 18.0814 30.3869 18.1354C30.6383 18.1894 30.9008 18.1445 31.12 18.01C31.3 17.93 31.47 17.81 31.66 17.72C31.85 17.63 31.91 17.72 31.93 17.72C31.95 17.72 32.08 18.03 32.02 18.11C31.6801 18.4857 31.2103 18.7185 30.7054 18.7612C30.2005 18.8039 29.6982 18.6533 29.3 18.34C29.1176 18.123 28.995 17.8623 28.9441 17.5834C28.8932 17.3046 28.9159 17.0173 29.01 16.75C29.106 16.2855 29.3245 15.8552 29.6427 15.5035C29.9609 15.1519 30.3674 14.8917 30.82 14.75L31.07 14.7C31.1498 14.6912 31.2302 14.6912 31.31 14.7C31.7536 14.6828 32.1868 14.8367 32.52 15.13C32.69 15.28 32.73 15.42 32.52 15.59C32.31 15.76 32.45 15.8 32.39 15.83H32.4ZM35.4 18.41C35.31 18.77 35.31 18.77 34.94 18.77H32.88C32.64 18.77 32.59 18.7 32.66 18.47C33 17.34 33.34 16.21 33.66 15.08C33.72 14.9 34.21 14.77 34.33 14.91C34.3657 14.9999 34.3657 15.1001 34.33 15.19C34.09 16.03 33.84 16.87 33.58 17.71C33.48 18.04 33.58 18.1 33.88 18.1H35.12C35.39 18.11 35.46 18.16 35.39 18.41H35.4ZM37.71 15.16L36.93 17.89C36.8707 18.0707 36.8207 18.2542 36.78 18.44C36.72 18.67 36.63 18.84 36.39 18.77C36.15 18.7 35.97 18.72 36.06 18.4C36.38 17.31 36.7 16.21 37.06 15.12C37.13 14.9 37.6 14.76 37.75 14.93C37.759 14.969 37.7602 15.0095 37.7533 15.049C37.7464 15.0885 37.7317 15.1263 37.71 15.16Z" fill="black"/>
</svg>
