<svg width="24" height="23" viewBox="0 0 24 23" fill="none" xmlns="http://www.w3.org/2000/svg">
<path d="M4.1201 1.24355e-05H19.1201C19.6615 -0.00130649 20.1978 0.104374 20.6983 0.310956C21.1987 0.517538 21.6535 0.820938 22.0363 1.20378C22.4191 1.58662 22.7225 2.04133 22.9291 2.54179C23.1357 3.04225 23.2414 3.57859 23.2401 4.12001V18.56C23.2401 19.1011 23.1335 19.6368 22.9264 20.1367C22.7194 20.6365 22.416 21.0907 22.0334 21.4733C21.6508 21.8559 21.1966 22.1594 20.6968 22.3664C20.1969 22.5735 19.6611 22.68 19.1201 22.68H4.1201C3.02741 22.68 1.97949 22.2459 1.20684 21.4733C0.434186 20.7006 0.00010962 19.6527 0.00010962 18.56V4.14003C-0.00385632 3.59693 0.0998275 3.05842 0.305224 2.55565C0.510621 2.05287 0.81366 1.59579 1.19676 1.21083C1.57987 0.825863 2.03545 0.520647 2.53722 0.312818C3.03899 0.104988 3.577 -0.00132348 4.1201 1.24355e-05ZM12.2301 6.00001C12.2301 6.00001 12.2301 5.94001 12.2301 5.93001C12.2277 5.91804 12.223 5.90669 12.2161 5.89662C12.2092 5.88655 12.2004 5.87799 12.1901 5.87144C12.1798 5.8649 12.1683 5.8605 12.1562 5.85853C12.1442 5.85657 12.1319 5.85706 12.1201 5.86H10.1201C10.0781 5.84471 10.0321 5.84471 9.9901 5.86C9.95893 5.88521 9.93769 5.92064 9.9301 5.96C9.7201 6.36 9.51008 6.77001 9.28008 7.18001C9.05008 7.59001 8.84011 7.99001 8.63011 8.40001C8.42011 8.81001 8.20011 9.22001 8.00011 9.65001C7.79011 9.23001 7.58009 8.83003 7.35009 8.42003C7.12009 8.01003 6.88007 7.61001 6.65007 7.19001C6.42007 6.77001 6.21008 6.36001 6.03008 5.94001C6.00455 5.90233 5.97025 5.87145 5.9301 5.85002H5.8001H3.60009C3.5844 5.84283 3.56735 5.83909 3.5501 5.83909C3.53284 5.83909 3.5158 5.84283 3.50011 5.85002C3.50011 5.85002 3.50011 5.91002 3.50011 5.95002L6.44011 10.95L3.44011 15.89C3.43269 15.9074 3.42882 15.9261 3.42882 15.945C3.42882 15.9639 3.43269 15.9826 3.44011 16C3.44011 16.05 3.44006 16 3.51006 16H5.64006C5.75006 16 5.8301 16 5.8601 15.89C6.0901 15.49 6.31008 15.08 6.53008 14.67L7.19011 13.43C7.42011 13.01 7.64008 12.6 7.84008 12.18C8.07008 12.61 8.31009 13.02 8.54009 13.44C8.77009 13.86 8.99006 14.26 9.20006 14.66C9.41006 15.06 9.61006 15.47 9.82006 15.87C9.89006 15.97 9.99007 15.98 10.1501 15.98H12.3501C12.4101 15.98 12.4401 15.98 12.4501 15.98C12.4646 15.9414 12.4646 15.8987 12.4501 15.86L9.35009 10.78L12.2601 5.98002L12.2301 6.00001ZM16.7101 16.22C17.2094 16.2169 17.7077 16.1734 18.2001 16.09C18.7419 15.9898 19.2716 15.8323 19.7801 15.62C19.8099 15.608 19.8354 15.5872 19.8532 15.5604C19.871 15.5337 19.8804 15.5022 19.8801 15.47C19.8801 15.3 19.8801 15.11 19.8801 14.9C19.8801 14.69 19.8801 14.5 19.8801 14.32V5.08C19.8753 5.0579 19.8623 5.03844 19.8437 5.02546C19.8252 5.01249 19.8025 5.00699 19.7801 5.01002H17.7801C17.7201 5.01002 17.6901 5.01001 17.6901 5.12001V8.18001H17.3901H17.1801C16.3288 8.15188 15.4847 8.34482 14.7301 8.74C14.0895 9.09011 13.5569 9.60884 13.1901 10.24C12.8325 10.8633 12.6494 11.5715 12.6601 12.29C12.6293 13.0615 12.8127 13.8264 13.1901 14.5C13.5355 15.0747 14.0436 15.5341 14.6501 15.82C15.3061 16.117 16.0201 16.2639 16.7401 16.25L16.7101 16.22ZM17.6601 14.28C17.5482 14.321 17.429 14.338 17.3101 14.33H16.9001C16.6289 14.3301 16.3593 14.2897 16.1001 14.21C15.854 14.1304 15.6286 13.9972 15.4401 13.82C15.2461 13.6239 15.096 13.3887 15.0001 13.13C14.8871 12.809 14.8328 12.4703 14.8401 12.13C14.8171 11.6968 14.9289 11.2671 15.1601 10.9C15.3683 10.5947 15.6504 10.347 15.9801 10.18C16.3224 10.0126 16.699 9.92701 17.0801 9.93001H17.4001L17.6601 9.98002V14.24V14.28Z" fill="#470137"/>
</svg>
